 <svg version="1.0" xmlns="http://www.w3.org/2000/svg"
             width="235.000000pt" height="406.000000pt" viewBox="0 0 235.000000 406.000000"
             preserveAspectRatio="xMidYMid meet" style="display: block;margin: auto"  id="bodyPartSvg" >
            <metadata>
                Created by potrace 1.11, written by Peter Selinger 2001-2013
            </metadata>
            <g transform="translate(0.000000,406.000000) scale(0.100000,-0.100000)"
               fill="#000000" stroke="none">
                <path d="M976 3977 c-22 -12 -53 -39 -69 -59 -26 -32 -31 -47 -35 -115 -3 -60
-9 -82 -24 -97 -12 -11 -18 -26 -15 -40 13 -53 40 -112 57 -127 11 -10 32 -44
46 -78 23 -54 25 -64 14 -91 -16 -39 -54 -61 -170 -100 -169 -56 -207 -117
-231 -370 -16 -179 -48 -304 -95 -371 -14 -20 -40 -87 -59 -148 -18 -61 -46
-140 -63 -175 -26 -55 -34 -65 -64 -71 -18 -4 -66 -25 -105 -47 -59 -32 -73
-44 -73 -64 0 -30 29 -46 69 -38 17 4 31 2 31 -3 0 -4 -18 -33 -41 -62 -48
-64 -51 -106 -8 -106 23 1 26 -3 25 -35 -1 -33 1 -35 28 -33 17 1 34 -4 41
-13 21 -29 49 -12 67 41 l16 50 1 -36 c1 -21 8 -42 17 -50 14 -11 19 -10 34 9
11 12 24 48 31 80 7 31 20 73 30 93 10 20 23 58 30 84 7 29 63 132 133 249
136 226 146 245 146 287 0 34 37 180 49 192 9 9 21 -111 21 -201 0 -29 -11
-96 -25 -148 -68 -254 -74 -555 -20 -879 21 -121 23 -154 15 -240 -5 -55 -14
-114 -20 -130 -24 -61 -24 -250 -1 -402 19 -123 21 -155 12 -235 -6 -51 -20
-127 -32 -168 -32 -111 -33 -147 -7 -200 36 -70 126 -111 160 -72 43 48 57 98
63 222 3 67 8 127 12 133 4 6 7 67 8 136 2 93 9 160 29 256 23 109 27 144 22
218 -6 70 -3 106 14 180 12 51 28 120 36 155 8 35 19 119 24 186 8 109 23 227
36 294 2 12 10 22 18 22 21 0 47 -150 61 -356 8 -104 28 -231 50 -313 15 -54
16 -75 7 -125 -13 -73 -3 -178 28 -286 17 -61 22 -112 26 -265 3 -104 5 -222
4 -261 -1 -45 5 -86 14 -109 19 -43 73 -115 88 -115 6 0 35 16 65 36 83 55 99
108 64 206 -38 103 -43 156 -31 315 6 81 18 190 26 240 18 121 18 151 -6 263
-11 52 -24 140 -29 195 -9 87 -8 110 11 190 17 73 21 122 20 263 0 95 -5 205
-12 245 -33 206 -54 320 -72 395 -18 70 -20 100 -14 199 3 65 11 122 16 127 6
6 10 7 10 3 0 -3 7 -32 16 -64 8 -32 19 -83 24 -114 7 -47 21 -75 94 -180 47
-68 112 -157 145 -198 48 -61 64 -91 89 -170 17 -53 34 -112 37 -132 7 -47 38
-77 60 -59 8 7 15 20 15 29 0 9 10 -1 22 -22 23 -40 47 -51 94 -45 27 3 29 6
29 43 0 22 -4 51 -9 65 l-8 25 24 -22 c26 -25 53 -30 63 -12 12 18 -4 55 -40
99 -19 23 -35 46 -35 51 0 5 15 9 33 9 70 0 78 50 13 81 -25 11 -50 27 -57 35
-6 8 -29 19 -51 25 -66 17 -96 63 -183 274 -27 65 -49 105 -92 163 -9 13 -20
47 -25 75 -32 206 -79 400 -113 473 -28 61 -41 79 -80 103 -26 17 -71 35 -99
41 -28 6 -65 18 -81 27 -17 8 -43 19 -60 22 -25 6 -31 12 -33 41 -4 34 36 170
50 170 11 0 48 108 48 140 0 19 -7 34 -20 42 -16 10 -20 24 -20 63 -1 93 -64
181 -147 204 -67 19 -163 13 -207 -12z m183 -2 c89 -18 151 -99 151 -196 0
-46 4 -56 27 -75 l28 -22 -18 -36 c-9 -20 -17 -43 -17 -50 0 -7 -8 -24 -18
-37 -54 -73 -80 -221 -42 -239 23 -11 78 -30 164 -56 121 -37 148 -63 199
-199 12 -33 66 -289 91 -435 4 -19 15 -43 26 -55 20 -21 102 -182 115 -225 15
-51 74 -156 102 -181 15 -15 45 -32 65 -39 21 -6 41 -16 44 -22 4 -6 27 -19
51 -30 53 -23 51 -43 -3 -44 -55 0 -56 -26 -4 -95 22 -29 40 -59 40 -66 0 -21
-22 -15 -52 14 -22 21 -31 24 -40 15 -9 -9 -8 -20 5 -47 9 -20 17 -47 17 -60
0 -22 -5 -25 -34 -25 -32 0 -37 5 -63 53 -29 55 -46 63 -51 25 -6 -48 -13 -54
-27 -28 -8 14 -14 36 -15 50 0 26 -44 170 -64 206 -6 12 -56 82 -111 155 -156
208 -174 238 -185 301 -5 31 -18 89 -30 130 -12 40 -24 81 -26 91 -3 9 -11 17
-18 17 -22 0 -43 -277 -27 -349 23 -104 49 -236 60 -311 7 -41 17 -102 22
-134 6 -32 11 -138 11 -235 0 -143 -3 -193 -20 -266 -20 -86 -20 -97 -7 -216
7 -68 21 -155 29 -192 18 -78 20 -133 7 -203 -9 -47 -25 -210 -35 -362 -6 -74
9 -159 42 -253 24 -70 7 -116 -60 -165 l-52 -37 -32 38 c-18 21 -37 55 -43 74
-6 20 -15 160 -19 311 -7 212 -13 285 -25 320 -25 70 -37 202 -25 275 9 55 7
74 -15 161 -14 54 -30 155 -37 224 -13 142 -37 338 -48 390 -6 26 -14 36 -31
38 -13 2 -27 0 -32 -5 -12 -12 -35 -172 -48 -328 -10 -116 -22 -182 -62 -348
-15 -62 -18 -97 -13 -171 5 -69 3 -112 -10 -167 -36 -163 -47 -254 -41 -320 4
-39 2 -83 -4 -107 -7 -23 -13 -91 -15 -151 -3 -94 -7 -118 -28 -158 -14 -26
-32 -52 -41 -57 -26 -17 -88 24 -115 75 -26 50 -25 71 6 194 34 130 40 217 25
335 -23 189 -27 366 -8 445 9 39 20 113 25 165 10 95 8 106 -30 305 -13 69
-25 250 -24 370 1 147 28 329 66 459 18 60 20 85 14 185 -9 168 -17 221 -31
221 -7 0 -15 -12 -17 -27 -3 -16 -17 -75 -32 -133 -14 -58 -29 -121 -31 -141
-3 -21 -40 -93 -87 -170 -136 -224 -176 -296 -183 -330 -4 -18 -17 -54 -28
-79 -11 -25 -27 -74 -36 -109 -19 -76 -41 -93 -41 -32 0 29 -5 44 -16 48 -20
7 -31 -10 -39 -59 -4 -21 -11 -41 -17 -44 -14 -9 -29 17 -22 39 8 25 -21 22
-39 -5 -24 -36 -32 -12 -14 40 9 26 17 50 17 55 0 17 -31 5 -46 -18 -9 -14
-20 -25 -25 -25 -19 0 -8 41 20 72 69 79 71 125 4 106 -41 -11 -71 5 -52 28 6
8 15 14 20 14 4 0 31 13 58 30 28 16 68 34 89 40 35 9 43 17 71 76 17 36 45
110 61 165 16 55 45 128 64 162 48 87 74 180 86 310 23 244 53 333 124 375 32
19 131 56 176 66 42 9 107 71 114 109 7 39 -32 138 -69 173 -12 11 -30 45 -40
74 -16 50 -17 54 -1 65 12 9 18 32 21 78 6 88 28 140 75 172 36 25 117 46 150
39 8 -1 30 -6 49 -9z"/>
            </g>
        </svg>